{"glyphs":{":":{"x_min":0,"x_max":320,"ha":320,"o":"m 160 -16 q 118 -16 88 14 q 58 44 58 86 q 58 127 88 157 q 118 187 160 187 q 202 187 232 158 q 261 128 261 85 q 261 42 232 13 q 202 -16 160 -16 z m 160 385 q 117 385 88 414 q 58 444 58 487 q 58 529 88 558 q 118 587 160 587 q 202 587 232 558 q 261 528 261 486 q 261 443 232 414 q 202 385 160 385 z"},"$":{"x_min":0,"x_max":525,"ha":525,"o":"m 35 530 q 35 539 35 548 q 35 557 36 566 q 42 621 76 666 q 96 692 120 709 q 145 726 166 732 q 188 738 200 740 q 212 742 216 742 q 218 741 219 744 q 223 753 223 778 q 224 785 232 788 q 239 792 259 792 q 278 792 285 784 q 292 776 295 749 l 352 734 l 362 730 q 381 722 401 713 q 421 704 421 691 q 421 682 410 645 q 400 608 396 601 q 393 594 385 594 q 374 594 369 596 q 363 599 335 617 q 321 626 310 627 q 289 631 289 605 l 288 562 l 288 511 q 288 458 298 446 q 309 434 386 401 q 401 395 416 381 q 431 367 449 342 q 473 306 481 272 q 489 239 489 210 q 489 190 484 165 q 474 120 453 90 q 432 60 393 36 l 366 22 l 296 -7 q 292 -15 292 -25 q 292 -33 295 -50 q 296 -59 288 -66 q 279 -72 259 -72 q 219 -72 219 -34 q 219 -26 219 -19 q 219 -18 223 0 l 158 10 l 107 28 q 76 41 65 52 q 54 62 54 78 q 55 85 55 88 l 56 95 l 62 121 l 71 156 q 80 187 93 187 q 106 187 132 168 l 136 167 l 175 146 q 191 138 200 138 q 217 138 222 166 l 224 194 q 224 293 216 315 q 208 337 158 357 q 101 381 68 426 q 35 470 35 530 z m 141 551 q 141 522 153 505 q 169 484 182 476 q 196 468 206 471 q 213 473 216 477 q 217 478 219 482 q 218 485 218 494 q 218 507 218 520 q 218 534 219 548 l 222 612 q 211 626 198 626 q 179 626 154 595 q 151 590 146 579 q 141 568 141 551 z m 285 286 l 289 227 q 289 204 289 192 q 289 180 289 175 q 289 158 290 156 q 294 151 300 146 q 306 140 314 140 q 323 140 331 144 q 339 149 351 161 q 372 184 372 229 q 372 255 345 286 q 334 299 325 303 q 316 307 311 307 q 296 307 285 286 z"},"?":{"x_min":0,"x_max":462,"ha":462,"o":"m 248 261 q 242 254 236 254 l 120 254 q 113 254 108 263 q 104 272 104 295 l 102 326 l 102 331 q 102 377 114 396 q 126 416 181 463 q 236 510 236 563 q 236 575 231 592 q 218 633 176 633 q 161 633 148 626 q 136 620 128 614 q 121 607 110 595 q 103 587 87 601 q 64 620 38 667 q 33 676 42 690 q 50 703 77 724 q 90 734 114 744 q 138 753 161 757 q 184 761 203 761 q 212 761 216 761 q 315 761 370 704 q 426 646 426 552 q 426 488 381 425 q 357 392 319 366 q 281 339 270 328 q 259 316 255 296 q 248 267 248 261 z m 184 -16 q 142 -16 112 14 q 82 44 82 86 q 82 127 112 157 q 142 187 184 187 q 226 187 256 158 q 285 128 285 85 q 285 42 256 13 q 226 -16 184 -16 z"},"'":{"x_min":0,"x_max":203,"ha":203,"o":"m 185 785 q 192 768 192 751 q 192 725 176 696 q 164 675 140 648 q 113 626 99 618 q 75 604 51 604 q 44 605 41 605 q 36 612 36 616 q 36 622 43 629 q 68 652 68 653 q 69 664 71 675 q 71 682 69 686 q 51 703 33 720 q 13 742 16 766 q 16 783 24 796 q 28 803 44 821 q 66 836 96 836 q 108 836 127 833 q 146 830 156 824 q 173 814 185 785 z"},"a":{"x_min":0,"x_max":524,"ha":524,"o":"m 450 0 l 250 0 q 238 0 226 0 q 208 3 198 4 l 171 8 q 123 18 98 34 q 72 49 50 82 q 29 115 29 165 q 29 188 33 207 q 42 254 83 294 q 128 337 201 362 q 231 371 240 372 q 259 376 261 376 q 266 377 270 379 l 277 393 l 285 411 q 286 415 280 426 q 274 437 267 447 q 254 465 221 465 q 199 465 172 455 q 150 445 136 424 q 121 402 110 402 q 99 402 72 424 q 44 447 44 479 q 44 515 77 544 q 103 567 157 583 q 173 588 191 590 q 209 592 231 592 q 471 592 471 374 l 473 334 l 473 328 l 473 254 l 473 246 l 474 176 l 474 148 l 474 99 l 473 20 q 468 0 450 0 z m 225 169 q 230 145 242 134 q 253 122 268 122 q 288 122 290 136 q 291 150 292 160 q 294 170 294 183 q 294 201 294 208 q 294 232 289 243 q 284 254 266 254 q 259 254 250 250 q 242 245 232 228 q 223 212 223 189 q 223 183 225 169 z"},"L":{"x_min":0,"x_max":536,"ha":536,"o":"m 99 629 q 108 684 118 702 q 128 720 147 720 l 342 720 q 355 720 355 704 q 355 700 352 692 q 345 671 338 654 q 332 638 322 614 q 318 605 311 583 q 299 545 292 517 q 270 434 264 387 q 259 340 258 320 q 257 300 257 277 q 257 270 257 266 q 257 138 343 138 q 373 138 414 156 l 437 169 q 484 201 489 201 q 496 201 511 176 l 538 69 l 550 17 q 550 10 546 5 q 542 0 536 0 l 100 0 q 74 0 66 28 q 59 55 59 165 l 58 245 q 58 249 63 317 q 65 344 65 378 l 74 469 l 76 484 z"},"3":{"x_min":0,"x_max":586,"ha":586,"o":"m 119 720 l 130 720 l 486 720 q 517 720 517 679 q 517 649 500 602 q 494 588 486 572 q 478 557 462 533 q 441 501 426 486 q 398 457 391 448 q 384 440 385 435 q 386 429 390 426 q 393 424 422 410 q 448 399 471 374 q 524 319 524 235 q 524 198 512 157 q 490 80 428 35 q 365 -10 275 -10 q 264 -10 254 -10 q 245 -9 216 -4 q 186 0 162 6 q 139 13 126 20 q 77 46 58 61 q 38 76 38 92 q 38 102 46 116 q 53 129 68 149 l 90 177 l 95 183 l 105 195 l 116 209 q 125 213 135 206 l 140 202 l 147 196 q 174 172 196 164 q 219 157 239 157 q 294 157 317 209 l 324 230 q 326 242 326 248 q 326 308 259 342 q 239 353 210 357 l 187 360 q 180 360 173 360 q 167 361 150 365 q 132 369 135 387 q 135 397 142 406 q 148 414 171 434 l 218 480 l 232 493 l 263 527 q 289 554 297 564 q 305 575 305 584 q 305 588 302 594 q 295 607 279 607 q 262 607 232 597 l 177 580 q 142 568 125 568 q 93 568 86 626 q 84 642 83 647 q 82 655 77 672 q 72 690 72 701 q 72 719 96 719 z"},";":{"x_min":0,"x_max":299,"ha":299,"o":"m 160 385 q 117 385 88 414 q 58 444 58 487 q 58 529 88 558 q 118 587 160 587 q 202 587 232 558 q 261 528 261 486 q 261 443 232 414 q 202 385 160 385 z m 117 -56 l 101 -63 l 111 -41 q 122 -10 122 10 q 122 49 73 76 l 59 82 q 54 84 58 96 q 59 99 63 103 q 76 115 90 127 l 95 130 l 126 157 l 153 179 q 163 186 178 186 q 198 186 219 172 q 240 158 251 134 q 259 115 259 86 q 259 69 257 60 q 245 -4 176 -36 l 158 -43 l 152 -45 l 122 -55 z"},"J":{"x_min":0,"x_max":409,"ha":409,"o":"m 130 609 q 119 664 119 692 q 119 720 136 720 l 319 720 q 336 720 343 687 q 350 654 350 547 q 350 518 350 486 q 350 453 351 417 l 350 370 l 349 320 q 349 208 332 148 q 316 87 284 49 q 230 -15 148 -15 q 129 -15 108 -12 q 45 -3 16 19 q -14 41 -14 73 q -14 79 -12 88 q -10 96 -7 105 l 8 140 l 18 160 q 28 176 40 183 q 51 190 55 185 l 80 154 q 92 138 108 138 q 121 138 128 148 q 135 158 136 168 l 141 201 l 141 205 q 141 267 142 314 q 143 362 144 407 l 143 437 l 140 509 q 140 543 136 570 q 132 597 130 609 z"},"V":{"x_min":0,"x_max":659,"ha":659,"o":"m 54 693 q 62 720 81 720 l 279 720 q 284 720 284 710 q 284 691 258 598 q 241 537 241 447 q 241 406 247 368 q 257 310 268 280 q 278 249 296 223 q 309 204 330 204 q 342 204 352 212 q 362 220 370 233 q 377 246 393 286 q 406 314 419 377 q 424 401 426 419 q 429 437 429 457 q 429 576 417 612 l 387 700 q 383 707 387 713 q 393 720 402 720 l 580 720 q 589 720 598 704 q 607 688 618 643 q 624 619 626 575 q 629 531 629 466 q 629 395 608 326 q 588 256 550 183 q 526 137 504 106 q 483 75 460 52 q 383 -25 328 -25 q 300 -25 268 -6 q 236 12 193 51 q 178 66 168 77 q 147 102 123 140 q 83 203 61 271 q 51 304 45 335 q 39 366 33 421 l 30 471 q 30 511 30 548 q 31 584 36 618 l 38 626 l 44 657 l 45 663 z"},"\"":{"x_min":0,"x_max":456,"ha":456,"o":"m 401 787 q 408 767 408 745 q 408 719 398 696 q 387 674 365 650 q 348 633 339 625 q 314 605 286 607 q 265 607 256 622 q 246 636 246 661 q 246 687 256 729 q 263 756 266 770 q 269 783 274 798 q 278 814 289 823 q 307 838 330 838 q 340 838 351 835 q 370 832 378 826 q 391 816 401 787 z m 211 787 q 218 767 218 745 q 218 719 208 696 q 197 674 175 650 q 158 633 149 625 q 124 605 96 607 q 75 607 66 622 q 56 636 56 661 q 56 687 66 729 q 73 756 76 770 q 79 783 84 798 q 88 814 99 823 q 117 838 140 838 q 150 838 161 835 q 180 832 188 826 q 202 815 211 787 z"},"7":{"x_min":0,"x_max":584,"ha":584,"o":"m 67 563 q 53 656 53 684 q 53 706 59 713 q 65 720 81 720 l 494 720 q 502 720 507 700 q 512 680 512 626 q 512 608 502 589 q 493 570 453 511 l 431 477 q 403 431 386 396 q 370 360 360 327 q 338 246 338 205 q 338 187 343 170 q 364 92 425 92 l 439 93 q 439 60 421 36 q 403 12 360 -6 q 321 -21 285 -21 q 258 -21 237 -14 q 119 24 119 138 q 119 173 131 215 q 139 245 156 278 q 173 311 238 420 l 256 447 q 291 492 304 512 q 317 533 317 544 q 317 549 312 556 q 307 562 300 564 q 293 566 277 566 q 260 566 248 566 l 238 566 l 194 568 q 158 568 144 562 q 130 556 105 528 l 100 523 q 97 518 90 516 q 80 514 76 521 l 71 533 l 71 537 z"},"S":{"x_min":0,"x_max":611,"ha":611,"o":"m 315 -16 q 177 -16 102 40 q 27 97 27 187 q 27 193 28 202 q 29 210 29 215 q 30 224 32 231 q 35 238 36 242 q 45 267 52 278 q 60 288 68 292 q 76 295 79 295 q 89 295 93 288 q 97 282 98 279 q 100 275 106 259 l 108 251 l 112 236 l 114 227 q 115 221 122 212 q 129 204 149 187 q 196 146 250 140 q 257 139 263 139 q 269 139 276 139 q 302 139 315 143 q 341 151 356 172 q 370 192 370 216 q 370 228 367 239 q 364 250 356 261 q 345 277 327 288 q 309 299 259 318 l 236 327 q 171 356 146 372 q 121 387 102 411 q 77 442 65 472 q 53 503 53 534 q 53 541 54 550 q 55 558 55 563 q 65 632 116 675 q 168 718 271 734 q 283 736 298 737 q 313 738 327 738 q 371 738 410 727 q 486 704 516 684 q 546 665 546 638 q 546 617 527 584 q 498 534 479 534 q 471 534 464 540 q 456 545 444 557 q 424 579 401 588 q 363 603 337 603 q 309 603 286 589 q 253 569 253 534 q 253 510 274 490 q 290 474 324 459 l 364 442 l 376 437 l 414 422 l 431 416 l 456 405 q 471 398 482 390 q 494 383 504 374 q 581 309 581 225 q 581 210 578 194 q 576 177 574 168 q 566 133 552 108 q 537 83 507 55 q 477 27 439 10 q 411 -3 381 -10 q 351 -16 315 -16 z"},"}":{"x_min":0,"x_max":318,"ha":318,"o":"m 299 397 q 281 387 273 380 q 247 357 247 324 q 247 313 247 308 q 247 298 247 294 q 247 285 247 281 q 247 262 246 242 q 246 223 246 204 q 246 197 246 193 q 246 71 205 29 q 176 -1 104 -1 q 86 -1 71 0 q 56 0 44 0 q 34 0 21 6 q 8 13 8 25 q 8 34 65 70 q 122 106 122 187 l 122 324 q 122 347 140 373 q 146 381 158 394 q 146 408 140 417 q 121 447 121 474 l 121 631 q 121 685 66 720 q 10 756 10 767 q 10 781 22 788 q 34 796 52 796 q 64 796 77 796 q 90 796 103 797 q 171 797 201 773 q 246 737 246 635 q 246 594 246 553 q 246 512 247 472 q 247 438 273 414 q 281 406 299 397 z"},"Z":{"x_min":0,"x_max":609,"ha":609,"o":"m 60 691 q 59 695 59 701 q 59 720 77 720 l 523 720 q 583 720 583 687 q 583 670 572 639 q 566 622 538 581 q 507 536 400 388 l 346 309 q 317 266 306 248 q 296 229 290 213 q 285 197 283 184 q 281 172 281 164 q 281 146 294 135 q 307 124 331 124 q 339 124 353 126 q 367 128 396 139 q 426 152 442 165 l 486 198 q 496 198 511 186 l 533 132 q 570 44 570 18 q 570 0 552 0 l 53 0 q 20 0 20 39 q 20 66 35 125 q 40 146 46 160 q 56 179 60 188 l 70 209 l 86 239 l 107 280 l 113 291 l 178 391 l 192 411 l 211 440 l 234 475 l 243 490 l 276 538 q 281 546 281 556 q 281 575 265 580 q 249 584 240 584 q 228 584 195 574 l 177 566 l 131 540 q 127 536 119 546 q 111 555 98 585 l 91 606 l 73 654 z"},"x":{"x_min":0,"x_max":538,"ha":538,"o":"m 45 470 q 37 517 37 545 q 37 561 40 568 q 44 576 50 576 l 222 576 q 232 576 236 566 q 240 557 240 527 q 240 519 240 512 q 240 506 244 478 l 244 474 l 250 442 q 252 430 258 423 q 265 416 275 416 q 283 416 288 421 q 297 430 300 441 l 309 476 l 310 482 l 316 519 l 316 524 l 319 557 q 322 576 336 576 l 489 576 q 499 576 499 552 q 499 531 492 490 q 490 475 479 444 q 468 412 454 389 q 440 366 414 337 q 401 324 401 309 q 401 286 434 257 l 454 236 q 493 192 508 115 q 512 98 514 80 q 516 61 516 48 q 516 23 510 12 q 505 0 499 0 l 331 0 q 330 1 329 1 q 322 6 316 18 q 314 21 313 25 q 309 44 309 103 l 296 148 q 294 155 290 163 q 287 171 282 178 q 278 186 266 186 q 261 186 254 182 q 247 177 242 169 q 238 161 231 142 q 224 124 217 84 l 215 65 l 211 20 l 211 15 q 208 0 196 0 l 46 0 q 39 0 34 9 q 28 18 28 38 q 28 59 34 86 q 39 113 52 153 q 65 193 110 246 q 120 257 124 265 q 128 273 128 280 q 128 293 126 296 q 123 302 91 342 q 80 356 70 382 q 57 415 49 449 z"},")":{"x_min":0,"x_max":329,"ha":329,"o":"m 11 630 q 8 632 7 633 q 3 638 0 645 q -2 652 3 664 q 4 666 19 693 q 39 729 49 739 q 63 753 84 753 q 100 753 124 747 q 173 735 208 684 q 244 633 263 534 q 271 483 271 422 l 271 390 l 270 343 q 270 287 268 274 q 267 262 255 205 l 244 150 l 238 122 l 231 96 l 227 79 l 218 43 l 211 20 l 203 -10 l 194 -38 q 189 -54 169 -54 q 162 -54 156 -51 l 141 -42 q 124 -25 124 -17 q 124 -7 143 50 l 159 120 q 172 179 178 222 q 183 266 183 311 q 183 409 168 466 q 153 523 138 552 q 123 581 105 597 q 79 621 54 626 q 30 630 11 630 z"},"&":{"x_min":0,"x_max":864,"ha":864,"o":"m 479 314 l 486 305 l 511 337 q 577 410 650 431 q 688 442 719 442 q 776 442 812 414 q 848 386 848 348 q 848 305 814 305 q 801 305 788 309 q 764 316 744 316 q 715 316 688 295 l 646 258 l 615 226 q 607 218 607 204 q 607 178 634 164 l 655 156 q 662 154 669 153 q 676 152 685 152 q 711 152 732 164 l 764 181 q 766 183 769 182 q 772 180 776 173 q 779 166 779 156 q 779 145 774 128 q 769 111 756 78 q 742 45 704 19 q 666 -7 619 -7 q 609 -8 604 -8 q 563 -8 512 18 l 482 35 l 467 45 l 442 36 l 436 33 l 416 22 q 397 12 351 1 q 324 -6 296 -9 q 268 -12 244 -12 q 153 -12 100 22 q 48 56 29 123 q 20 153 20 180 q 20 242 77 309 l 101 334 l 154 384 l 161 393 q 164 401 164 407 q 164 415 156 432 q 147 448 127 481 q 116 499 109 531 q 106 548 106 564 q 106 639 172 688 q 237 738 351 738 q 468 738 521 700 q 574 662 574 586 q 574 551 554 516 q 535 481 486 434 l 466 416 q 444 397 444 385 q 444 376 453 359 l 468 332 l 471 326 z m 322 493 q 376 506 386 565 l 387 589 q 386 606 374 617 q 362 628 347 628 q 340 628 332 625 l 318 617 q 298 602 298 578 q 298 557 314 512 z m 227 199 l 229 183 q 242 125 295 125 q 306 125 318 126 q 329 128 340 138 q 350 149 350 163 q 350 169 349 172 q 346 182 344 186 q 338 195 336 199 l 315 230 l 308 238 l 289 260 q 281 268 270 268 q 249 268 238 241 q 227 214 227 199 z"},"_":{"x_min":0,"x_max":732,"ha":732,"o":"m 722 -117 q 711 -140 704 -147 q 688 -163 653 -168 q 546 -168 442 -169 q 339 -170 194 -172 q 48 -174 30 -174 q 22 -174 14 -170 q 7 -166 6 -165 q 15 -147 29 -134 q 47 -117 77 -109 l 324 -110 q 403 -110 513 -110 q 623 -109 692 -101 q 697 -100 707 -100 q 724 -100 724 -110 q 724 -111 722 -117 z"},"v":{"x_min":0,"x_max":529,"ha":529,"o":"m 36 440 q 29 499 29 532 q 29 557 33 566 q 37 576 44 576 l 217 576 q 224 576 226 562 q 228 549 228 504 q 228 487 229 460 q 230 432 231 405 l 233 384 l 234 374 l 240 324 l 251 266 q 254 251 264 240 q 272 228 284 236 q 291 241 296 255 q 300 269 305 306 l 313 366 l 314 371 l 318 439 l 320 500 l 320 505 q 320 549 322 562 q 324 576 331 576 l 483 576 q 500 576 500 548 l 500 517 l 499 509 l 489 389 l 481 331 q 469 260 454 213 q 438 166 416 130 q 321 -22 269 -22 q 249 -22 228 -8 q 208 5 180 35 q 136 80 101 158 q 66 235 49 335 l 48 342 z"},"O":{"x_min":0,"x_max":696,"ha":696,"o":"m 467 2 l 432 0 l 202 0 q 136 0 91 56 q 42 117 31 229 q 30 245 30 257 q 29 269 29 276 q 29 352 52 429 q 68 482 89 527 q 107 567 128 597 q 160 642 193 672 q 226 701 258 715 q 307 737 350 737 q 389 737 429 720 q 469 703 512 666 q 561 623 602 547 q 613 528 623 500 q 633 472 642 436 q 667 336 667 257 q 667 141 614 78 q 562 14 467 2 z m 234 282 q 234 217 260 190 q 286 163 344 163 q 400 163 423 181 q 446 199 458 253 q 462 266 462 288 q 462 325 445 403 q 441 418 438 430 q 436 441 428 462 q 414 500 409 511 q 404 522 388 549 q 371 573 350 573 q 327 573 310 549 q 293 525 284 506 q 275 487 261 446 q 247 404 240 363 q 234 322 234 282 z"},"(":{"x_min":0,"x_max":329,"ha":329,"o":"m 58 403 l 58 422 q 58 462 60 486 q 62 509 67 534 q 85 632 122 686 q 156 735 206 747 q 230 753 245 753 q 269 753 286 732 q 296 719 311 693 q 330 656 330 648 q 330 644 324 636 q 319 629 316 628 q 309 626 278 626 q 256 626 224 597 q 208 583 193 552 q 175 515 161 465 q 147 415 147 311 q 147 225 171 120 q 179 80 182 67 q 185 54 187 50 q 205 -7 205 -16 q 205 -24 200 -30 q 195 -36 188 -42 l 173 -51 q 167 -54 160 -54 q 140 -54 135 -38 l 127 -10 l 118 20 l 112 43 l 102 79 l 98 96 l 92 122 l 86 150 l 74 205 q 63 260 61 276 q 59 293 59 343 z"},"C":{"x_min":0,"x_max":623,"ha":623,"o":"m 560 244 l 569 265 q 584 254 592 235 q 601 216 601 189 q 601 174 598 156 q 589 89 540 44 q 490 -1 406 -14 q 395 -16 376 -16 q 356 -16 343 -17 q 254 -17 202 8 q 149 34 105 94 l 87 121 q 44 190 33 287 q 29 324 28 339 q 28 354 28 363 q 28 486 79 572 q 127 654 192 694 q 258 734 355 734 q 373 734 390 734 q 406 734 423 731 q 475 722 504 706 q 532 691 548 664 q 561 642 561 616 q 561 582 540 554 q 519 526 480 513 l 463 509 q 443 506 432 506 q 417 506 414 514 q 410 522 410 552 q 410 567 396 576 q 383 586 361 586 q 344 586 330 581 q 295 571 270 532 q 246 493 236 423 q 233 400 233 378 q 233 368 233 363 q 233 313 246 276 q 260 239 283 211 q 323 165 377 154 q 400 149 417 149 q 509 149 560 244 z"},"W":{"x_min":0,"x_max":863,"ha":863,"o":"m 40 683 q 43 702 49 711 q 55 720 64 720 l 237 720 q 244 720 244 707 q 242 673 240 614 q 238 554 238 529 q 237 508 237 495 q 237 485 238 472 q 239 459 239 451 l 240 440 l 247 373 q 252 324 256 309 q 260 294 275 276 q 302 297 314 325 q 326 353 339 430 q 343 452 345 477 q 347 502 347 538 q 347 563 346 585 q 344 607 343 617 q 337 670 337 692 q 337 720 348 720 l 527 720 q 546 720 546 694 q 546 678 538 628 q 535 613 534 588 q 533 562 533 505 l 537 431 l 540 397 l 541 392 l 553 323 q 554 317 556 308 q 559 299 564 288 q 573 275 587 280 q 598 284 608 304 q 617 323 623 363 l 635 438 l 635 444 l 638 478 q 638 560 632 608 l 619 687 q 617 706 625 715 q 629 720 634 720 l 797 720 q 821 720 827 674 l 831 631 l 832 628 l 834 582 q 834 544 830 503 q 826 462 814 404 q 790 288 744 192 q 709 117 657 43 q 613 -20 575 -20 q 543 -20 513 27 l 497 52 l 484 73 q 467 99 460 114 q 454 130 450 142 q 445 153 439 163 q 436 171 423 171 q 416 171 407 165 q 398 159 382 126 l 362 83 l 353 66 q 335 30 327 20 q 295 -22 267 -22 q 240 -22 205 18 l 192 33 l 167 64 l 163 70 q 143 96 125 128 q 90 191 70 252 q 49 313 39 374 q 29 434 29 512 q 29 571 37 656 l 38 665 z"},"A":{"x_min":0,"x_max":712,"ha":712,"o":"m 660 174 q 660 76 646 31 q 636 0 624 0 l 426 0 q 414 0 414 15 q 414 28 424 54 q 431 71 434 82 q 438 94 442 112 l 446 129 l 455 173 q 458 185 460 196 q 462 206 462 219 q 464 238 450 250 q 437 263 413 263 q 402 263 386 260 q 371 256 352 250 q 333 243 322 239 q 285 222 270 206 q 255 190 255 164 q 255 139 274 90 l 284 70 q 299 45 305 32 q 311 19 310 13 q 310 0 298 0 l 97 0 q 90 0 83 10 q 76 19 66 46 l 52 98 q 43 136 43 189 q 43 213 46 245 q 49 277 54 308 q 58 338 62 355 q 66 372 68 380 q 81 429 94 462 q 106 496 121 524 q 161 599 211 651 q 232 674 258 693 q 342 758 371 758 q 397 758 462 713 l 507 676 q 582 604 622 488 q 662 373 662 218 z m 277 397 q 280 394 312 392 q 345 391 380 391 l 387 391 q 444 391 444 424 q 444 437 435 460 l 420 498 l 418 503 l 400 535 q 388 558 369 558 q 358 558 347 546 q 336 535 320 509 l 295 468 l 282 435 q 274 416 274 406 q 274 400 277 397 z"},"f":{"x_min":0,"x_max":360,"ha":360,"o":"m 15 537 q 36 578 63 578 q 72 578 81 575 l 93 586 l 108 645 q 133 744 238 759 l 249 761 q 321 761 346 755 q 370 749 370 733 q 370 691 365 672 q 360 653 353 649 l 324 642 q 283 634 283 588 l 284 575 l 299 575 q 368 575 368 525 q 368 510 366 502 q 360 473 350 466 q 341 460 308 460 q 285 460 277 446 q 269 431 269 386 l 268 333 l 268 326 l 270 266 l 272 240 l 274 208 l 279 152 q 292 70 292 36 q 292 15 288 8 q 284 0 277 0 l 109 0 q 98 0 91 24 q 84 47 84 111 l 83 160 l 82 191 l 81 223 l 81 270 l 81 349 l 82 406 l 83 426 q 83 453 76 458 q 69 463 62 463 q 55 463 35 456 q 26 453 15 465 q 4 477 4 495 q 4 506 6 515 q 9 524 15 537 z"},"Q":{"x_min":0,"x_max":669,"ha":669,"o":"m 565 55 l 543 76 l 509 44 q 470 12 438 -1 q 407 -14 360 -14 l 331 -15 q 137 -15 61 166 q 45 204 37 256 q 29 308 29 388 q 29 440 37 480 q 50 541 70 582 q 91 622 125 655 q 171 702 228 719 q 284 736 373 736 q 385 736 398 734 q 410 731 429 726 q 515 701 564 638 q 614 576 633 463 q 639 422 639 382 q 639 340 634 300 q 630 261 624 237 l 603 152 q 604 147 606 144 q 608 140 619 126 l 630 112 l 639 102 q 645 95 651 78 q 657 60 662 28 q 663 23 663 14 q 663 9 663 5 q 661 1 660 -7 q 659 -15 643 -13 q 636 -11 630 -7 q 625 -3 603 19 l 601 21 l 575 45 z m 432 275 q 435 310 435 345 q 435 362 434 379 q 434 396 434 413 q 434 507 409 552 q 384 597 343 597 q 326 597 302 586 q 277 575 262 543 q 247 511 239 445 q 235 417 235 359 l 239 281 q 249 206 265 176 q 281 147 314 142 q 328 140 333 140 q 371 140 388 170 q 356 203 342 240 q 326 287 326 308 q 326 323 335 336 q 340 342 346 342 q 350 342 354 338 l 370 313 l 381 298 q 402 275 432 275 z"},"w":{"x_min":0,"x_max":738,"ha":738,"o":"m 29 449 q 29 527 33 552 q 37 576 49 576 l 209 576 q 218 576 220 562 q 222 548 222 497 q 222 475 222 451 q 222 427 223 401 l 224 379 l 230 321 q 234 284 238 272 q 243 259 252 255 q 265 248 269 260 l 280 313 q 290 365 292 382 q 294 398 294 437 q 294 457 294 477 q 295 497 295 501 q 292 537 292 553 q 292 568 295 572 q 298 576 308 576 l 455 576 q 461 576 462 566 q 463 556 463 540 l 463 502 l 462 443 l 463 385 l 469 329 q 473 295 477 283 q 481 271 490 265 q 495 262 499 262 q 508 262 510 269 q 518 302 526 355 l 529 377 q 531 394 532 408 q 534 421 534 437 l 534 450 l 534 477 l 533 508 l 533 516 l 531 545 l 530 556 q 530 576 544 576 l 684 576 q 696 576 702 554 q 709 531 709 501 q 709 467 702 422 l 684 307 l 683 297 q 672 239 655 200 q 638 161 585 71 q 565 35 535 2 q 509 -27 487 -27 q 459 -27 429 29 l 400 85 l 378 145 q 377 152 370 152 q 366 152 363 150 q 360 149 355 138 q 350 127 334 88 l 299 29 q 281 0 270 -12 q 259 -24 246 -24 q 235 -24 222 -15 q 208 -6 186 14 q 173 25 154 49 q 131 77 110 114 q 89 152 72 199 q 55 246 44 297 l 36 347 l 36 356 z"},"-":{"x_min":0,"x_max":389,"ha":389,"o":"m 56 344 q 74 380 85 392 q 96 404 109 404 l 330 404 q 353 404 353 367 q 353 345 339 306 q 325 267 316 254 q 306 241 292 241 q 288 241 278 243 l 61 243 q 35 243 35 276 q 35 286 38 298 z"},"E":{"x_min":0,"x_max":590,"ha":590,"o":"m 91 623 q 102 684 119 702 q 136 720 181 720 l 523 720 q 541 720 556 715 q 571 710 567 699 q 560 680 549 663 l 531 621 q 523 599 522 597 q 516 583 508 583 q 503 583 492 588 q 480 592 467 598 q 438 608 420 610 q 403 612 400 612 q 391 613 381 612 q 326 612 296 589 q 266 566 254 519 q 251 507 251 498 q 251 473 281 473 q 291 473 297 474 l 342 485 q 352 488 362 490 q 372 491 387 491 l 399 492 q 450 492 466 486 q 482 481 482 464 q 482 457 481 453 l 469 426 q 457 397 455 391 q 447 370 442 350 q 436 330 417 330 q 398 330 359 346 q 352 349 347 348 q 332 348 319 341 q 315 339 289 321 q 273 310 264 288 q 254 266 254 234 q 254 185 285 153 q 316 121 366 121 q 376 121 390 122 q 405 124 424 130 q 444 135 456 141 l 498 166 q 502 170 510 163 q 518 156 531 128 l 534 121 l 546 91 l 563 55 q 571 39 574 31 q 576 23 576 18 q 576 0 560 0 l 92 0 q 78 0 70 23 q 62 46 62 109 l 58 185 l 58 203 l 59 295 l 61 347 l 63 387 l 65 421 l 69 478 l 77 552 z"},"s":{"x_min":0,"x_max":495,"ha":495,"o":"m 33 145 q 33 152 32 160 q 32 169 32 171 q 32 201 39 217 q 46 233 64 247 q 76 244 82 238 q 88 232 98 213 l 105 201 q 125 169 138 160 q 152 150 188 140 q 208 135 225 135 q 241 135 252 146 q 264 156 264 173 q 264 195 250 212 q 236 229 198 249 l 141 279 l 137 282 q 114 293 85 330 q 56 368 56 421 q 56 443 62 466 q 79 525 120 556 q 166 590 241 590 q 261 590 274 590 q 287 590 310 586 q 334 583 360 574 q 386 566 402 555 q 451 522 451 496 q 451 474 417 431 q 414 426 408 420 q 401 415 397 412 q 377 400 369 400 q 360 400 347 419 l 337 431 q 309 462 276 462 q 261 462 248 452 q 235 443 235 428 q 235 420 241 410 q 247 399 260 390 q 272 380 312 360 l 338 347 q 405 309 436 270 q 466 230 466 182 q 466 160 462 142 q 459 125 454 112 q 449 100 440 84 q 413 39 380 18 q 348 -2 288 -10 q 263 -14 234 -14 q 147 -14 93 30 q 39 74 33 145 z"},"l":{"x_min":0,"x_max":305,"ha":305,"o":"m 71 711 q 75 734 82 742 q 89 749 106 749 l 252 749 q 268 749 268 730 q 268 716 259 675 l 251 615 l 248 582 l 245 554 l 242 518 l 240 491 l 237 385 q 237 366 239 322 q 241 277 241 263 l 247 180 q 266 67 266 32 q 266 13 262 6 q 259 0 251 0 l 82 0 q 76 0 71 5 q 58 20 54 64 q 51 107 51 328 q 51 429 52 516 q 54 604 65 676 l 66 682 z"},"8":{"x_min":0,"x_max":584,"ha":584,"o":"m 336 -13 q 306 -16 279 -16 q 172 -16 110 28 q 48 73 36 151 q 34 169 34 179 q 34 223 53 262 q 62 281 71 292 q 80 304 111 339 l 128 362 l 139 375 l 126 390 q 123 392 120 397 q 111 411 102 426 q 82 458 72 487 q 62 516 62 543 q 62 550 63 558 q 64 567 64 572 l 70 605 q 84 654 116 682 q 147 711 205 728 q 240 737 283 737 q 293 737 302 737 q 312 737 325 735 q 397 728 436 704 q 474 680 492 648 q 511 617 511 571 q 511 529 504 506 q 496 484 470 453 l 439 416 q 428 403 428 400 q 428 397 439 384 l 482 347 q 509 326 526 284 q 544 241 544 192 q 544 61 422 7 q 402 -1 381 -7 q 360 -13 336 -13 z m 290 459 q 318 490 324 529 q 326 547 326 553 q 326 576 316 594 q 305 611 286 611 q 271 611 261 601 q 239 580 239 540 q 241 522 248 506 q 256 490 274 472 z m 279 308 q 253 285 242 255 q 232 225 232 209 q 232 182 247 166 q 262 150 285 150 q 289 150 299 152 q 340 162 340 212 q 340 224 337 239 q 334 254 324 268 q 314 282 293 299 z"},"\\":{"x_min":0,"x_max":287,"ha":287,"o":"m 265 7 q 264 0 263 -1 q 253 -3 245 -3 q 221 -3 212 9 l 13 723 q 8 740 6 754 q 4 767 4 774 q 4 791 14 791 q 33 784 42 784 q 48 771 55 757 q 62 743 69 721 q 90 647 138 475 q 140 467 199 250 q 232 128 265 7 z"},"e":{"x_min":0,"x_max":540,"ha":540,"o":"m 378 146 q 424 160 450 182 q 475 204 485 237 q 511 203 511 163 q 511 125 485 78 q 466 43 426 18 q 386 -6 328 -13 q 307 -16 285 -16 q 272 -16 265 -15 q 171 -15 113 42 q 55 100 34 212 q 28 238 28 264 q 28 398 77 477 q 126 556 217 583 q 256 595 295 595 q 390 595 445 550 q 500 505 500 438 q 500 424 499 416 q 498 408 493 392 l 485 370 q 467 330 433 307 q 399 284 303 249 l 280 242 q 276 240 272 238 q 268 236 257 227 l 246 216 q 236 203 236 187 q 236 159 263 147 q 284 138 332 138 q 352 138 378 146 z m 216 405 q 214 391 214 387 q 214 356 237 360 q 254 362 269 369 q 290 379 302 388 q 313 396 318 406 q 327 423 325 438 q 323 452 310 461 q 298 470 281 467 q 258 462 240 444 q 221 426 216 405 z"},"b":{"x_min":0,"x_max":561,"ha":561,"o":"m 63 690 q 67 723 73 736 q 79 749 87 749 l 244 749 q 255 749 261 741 q 267 733 267 715 q 267 701 263 682 q 259 662 249 635 q 246 628 244 613 q 244 562 270 562 q 284 562 304 569 l 324 575 q 326 576 355 576 q 380 576 390 573 q 399 570 429 554 q 459 538 486 495 q 513 452 526 387 q 533 355 533 314 q 533 293 530 268 q 527 243 522 220 q 507 154 486 116 q 466 78 431 50 l 406 33 q 379 17 354 8 q 329 0 313 0 l 95 0 q 74 0 64 42 q 54 83 54 215 l 53 265 q 53 323 52 359 q 51 395 50 429 q 50 516 52 564 q 53 611 56 639 l 57 643 z m 240 351 l 242 289 l 243 276 q 243 240 244 228 q 245 215 250 202 q 254 189 263 183 q 272 177 285 177 q 293 177 299 180 q 315 188 324 204 q 332 219 339 256 q 341 266 341 290 q 341 314 341 330 l 340 354 l 332 402 q 324 428 317 440 q 310 451 298 458 q 292 461 284 461 q 269 461 258 452 q 246 442 244 429 q 242 416 241 404 q 240 392 240 378 q 240 361 240 351 z"},"%":{"x_min":0,"x_max":885,"ha":885,"o":"m 622 701 q 618 689 614 682 q 611 676 607 670 l 320 21 l 278 0 q 274 14 274 18 q 274 34 286 68 q 302 107 312 137 l 325 174 l 417 411 l 462 530 l 507 650 l 526 688 q 539 715 545 723 q 551 731 560 738 q 582 752 597 752 q 601 752 609 750 q 629 743 627 724 z m 29 511 q 28 517 28 533 q 28 612 54 665 q 95 749 194 749 q 384 749 384 516 q 384 500 382 492 q 381 483 375 463 q 357 400 330 370 q 302 339 253 327 q 237 323 214 323 q 202 323 190 323 q 178 326 173 327 q 104 339 69 380 q 29 426 29 511 z m 661 -7 q 580 -7 538 54 q 495 115 495 197 q 495 304 545 360 q 595 417 683 417 q 767 417 810 357 q 852 297 852 185 q 852 169 850 160 q 848 150 843 131 q 825 68 798 38 q 770 7 721 -4 q 717 -5 706 -6 q 695 -7 677 -7 q 667 -7 661 -7 z m 158 549 l 158 531 q 158 501 164 484 q 171 466 183 456 q 195 445 210 445 q 234 445 245 472 q 250 485 252 498 q 255 511 255 539 q 256 554 256 566 q 256 592 253 604 q 250 615 244 623 q 223 649 204 649 q 193 649 180 638 q 171 630 167 623 q 159 610 159 583 l 158 558 z m 626 218 l 626 201 q 626 170 632 152 q 639 135 651 124 q 663 114 677 114 q 702 114 713 141 q 718 153 720 166 q 723 180 723 206 q 724 218 724 223 q 724 238 720 258 q 717 277 712 291 q 699 319 674 319 q 660 319 648 308 q 636 296 632 286 q 627 275 627 252 l 626 229 z"},"m":{"x_min":0,"x_max":844,"ha":844,"o":"m 51 385 q 51 506 60 541 q 68 576 89 576 l 247 576 q 253 576 259 568 q 265 559 265 544 l 262 529 l 276 541 q 332 582 379 582 q 415 582 458 559 l 474 549 l 510 566 q 566 587 612 587 q 695 587 743 522 q 791 458 791 335 l 793 298 l 794 275 q 794 253 792 214 q 791 175 791 170 l 789 138 l 788 116 l 787 108 l 781 63 q 777 25 772 12 q 766 0 755 0 l 593 0 q 579 0 579 22 q 579 35 581 48 q 583 61 590 95 q 598 129 601 156 q 604 182 604 210 l 605 267 q 605 329 602 360 q 599 392 593 409 q 587 426 578 435 q 569 444 555 444 q 539 444 530 432 q 520 419 520 398 l 521 362 l 521 221 l 520 174 l 519 152 l 517 132 l 513 84 q 507 28 500 14 q 494 0 474 0 l 312 0 q 305 0 305 11 l 323 83 q 330 121 333 148 q 336 175 336 205 l 338 233 l 338 237 l 336 308 l 335 333 q 335 376 333 388 q 331 399 324 412 q 313 433 292 433 q 274 433 259 415 q 249 403 244 386 q 239 368 239 325 l 237 265 q 237 212 238 190 q 239 169 241 154 q 257 58 257 34 q 257 13 250 6 q 242 0 221 0 l 80 0 q 67 0 63 20 q 60 28 58 62 q 55 96 55 134 q 55 189 52 231 q 50 273 49 301 z"},"#":{"x_min":0,"x_max":600,"ha":600,"o":"m 151 202 l 36 202 l 51 274 l 167 274 l 203 446 l 88 446 l 103 518 l 219 518 l 261 720 l 333 720 l 291 518 l 377 518 l 420 720 l 492 720 l 449 518 l 564 518 l 549 446 l 434 446 l 397 274 l 512 274 l 497 202 l 382 202 l 339 0 l 267 0 l 310 202 l 223 202 l 180 0 l 108 0 z m 239 274 l 325 274 l 362 446 l 275 446 z"},",":{"x_min":0,"x_max":275,"ha":275,"o":"m 95 -56 l 79 -63 l 89 -41 q 100 -10 100 10 q 100 49 51 76 l 37 82 q 32 84 36 96 q 37 99 41 103 q 54 115 68 127 l 73 130 l 104 157 l 131 179 q 141 186 156 186 q 176 186 197 172 q 218 158 229 134 q 237 115 237 86 q 237 69 235 60 q 223 -4 154 -36 l 136 -43 l 130 -45 l 100 -55 z"},"n":{"x_min":0,"x_max":589,"ha":589,"o":"m 57 502 q 57 542 65 559 q 73 576 87 576 l 256 576 q 269 576 269 550 l 268 542 l 290 557 q 343 587 391 587 q 447 587 484 544 q 520 502 530 422 l 538 347 l 538 326 l 539 282 l 539 242 l 539 216 l 536 151 l 530 86 q 525 38 516 19 q 508 0 497 0 l 329 0 q 319 0 319 20 q 319 37 333 110 q 338 138 342 172 q 345 207 345 235 l 346 265 l 346 272 l 346 341 q 346 362 344 381 q 342 400 338 414 q 335 429 324 438 q 314 447 303 447 q 300 447 292 444 q 284 442 275 435 q 254 416 248 398 q 241 380 241 326 l 239 244 q 239 232 240 217 q 241 202 244 166 q 248 129 250 107 q 252 85 254 74 q 257 63 260 45 q 262 27 262 18 q 262 0 252 0 l 78 0 q 67 0 60 28 q 53 56 53 136 l 50 214 l 50 228 l 51 320 l 54 411 l 54 428 z"},"h":{"x_min":0,"x_max":579,"ha":579,"o":"m 80 715 q 85 749 95 749 l 246 749 q 267 749 274 746 q 280 742 280 728 q 280 723 280 718 q 278 710 278 705 l 265 661 l 262 651 q 248 589 248 577 q 248 565 259 565 q 266 565 278 567 q 291 569 302 573 q 322 581 336 586 q 351 592 372 592 q 385 592 400 589 q 490 573 517 450 q 521 431 524 404 q 528 377 528 338 l 529 320 l 529 307 l 528 259 q 528 221 526 196 q 524 171 520 134 l 519 130 l 511 74 q 505 31 498 16 q 492 0 484 0 l 320 0 q 305 0 305 20 q 305 37 319 93 q 322 105 326 140 q 331 174 335 205 l 337 233 l 339 253 l 341 304 q 341 336 341 357 q 341 378 342 387 q 340 405 338 417 q 335 429 330 439 q 319 462 297 462 q 287 462 276 456 q 266 449 258 436 q 249 422 249 405 l 243 352 l 243 343 l 239 283 l 240 232 l 241 203 l 243 181 q 243 153 245 130 q 247 107 252 80 q 256 52 256 34 q 256 15 252 8 q 247 0 237 0 l 70 0 q 63 0 58 20 q 54 41 52 60 q 51 79 50 120 q 50 160 50 193 l 50 314 l 55 436 q 55 510 60 558 q 69 625 75 678 z"},"z":{"x_min":0,"x_max":476,"ha":476,"o":"m 57 514 q 55 525 54 534 q 52 542 52 552 q 52 576 71 576 l 421 576 q 453 576 453 527 q 453 514 450 494 q 447 474 446 466 q 442 445 428 421 q 414 397 381 357 l 361 333 q 338 306 330 294 q 321 282 301 252 l 266 197 q 255 179 247 164 q 239 150 237 139 q 234 124 242 114 q 250 103 263 103 q 274 103 286 106 q 297 109 303 111 l 352 125 q 392 142 401 142 q 408 142 413 137 q 415 135 423 120 l 435 76 q 446 36 446 17 q 446 0 431 0 l 36 0 q 22 0 22 32 l 23 61 q 30 112 46 160 q 63 207 95 264 q 122 311 141 340 q 157 365 172 381 q 207 419 216 432 q 226 445 227 453 q 227 462 221 469 q 215 476 206 474 q 195 473 186 470 q 178 468 173 467 l 133 454 q 123 450 110 446 q 97 441 91 441 q 78 441 72 456 q 65 471 57 514 z"},"B":{"x_min":0,"x_max":668,"ha":668,"o":"m 68 620 q 79 685 97 702 q 115 720 174 720 l 424 720 q 475 720 505 708 q 590 674 590 603 q 590 538 516 451 l 493 426 q 484 417 484 413 q 484 409 493 400 l 527 370 q 554 346 572 323 q 591 300 604 273 q 633 212 633 164 q 633 144 628 126 q 612 66 574 38 q 536 10 455 2 l 423 0 l 103 0 q 88 0 80 35 l 74 70 l 73 76 q 64 165 62 184 q 61 202 61 248 q 61 294 60 328 q 59 362 58 393 q 58 481 61 537 q 64 593 68 620 z m 272 450 q 295 453 312 464 q 330 474 353 500 q 360 507 370 522 q 380 537 384 546 q 389 554 389 567 q 389 585 378 598 q 368 610 352 610 q 318 610 295 590 q 272 571 262 525 q 258 508 258 492 q 258 468 272 450 z m 268 278 q 264 259 264 235 q 264 223 265 217 q 270 164 282 144 q 294 125 325 125 q 336 124 340 124 q 349 124 360 127 q 419 142 419 216 q 419 241 406 265 q 379 320 349 320 q 326 320 279 287 z"},"K":{"x_min":0,"x_max":659,"ha":659,"o":"m 64 461 q 81 636 90 678 q 100 720 123 720 l 294 720 q 310 720 310 698 q 310 683 301 654 l 288 607 l 278 560 l 277 552 l 272 514 q 267 473 268 467 q 270 448 286 454 q 292 457 300 467 q 309 477 327 505 l 355 550 l 357 553 l 363 564 l 383 604 l 405 649 l 408 655 l 431 706 q 435 720 447 720 l 587 720 q 602 720 612 709 q 621 698 621 690 q 621 676 598 629 l 582 595 l 573 578 l 561 556 q 545 525 534 508 q 523 490 514 478 l 482 434 l 481 431 q 479 429 478 425 q 477 422 477 420 q 477 413 491 396 l 500 386 l 517 367 l 539 336 q 561 302 575 270 q 589 239 606 182 l 614 153 l 615 149 l 628 87 q 631 72 634 54 q 636 36 636 26 q 636 0 624 0 l 442 0 q 430 0 420 10 q 411 19 409 37 l 403 87 l 401 99 l 394 139 l 384 187 l 383 191 l 370 235 q 367 249 365 254 q 359 266 357 272 q 351 288 332 288 q 320 288 310 279 q 299 270 295 264 q 284 247 278 233 q 273 219 273 198 q 273 185 276 158 q 279 130 284 92 l 287 72 l 293 39 q 300 0 262 0 l 88 0 q 72 0 65 48 q 58 95 58 251 l 58 294 q 58 335 61 391 q 64 447 64 461 z"},"R":{"x_min":0,"x_max":668,"ha":668,"o":"m 62 488 q 62 632 75 681 q 85 720 113 720 l 472 720 q 489 720 507 715 q 525 710 546 697 q 568 684 584 667 q 626 623 626 560 q 626 545 623 527 q 617 488 590 452 q 563 415 502 369 q 493 361 493 357 q 493 351 497 344 l 546 290 q 557 278 571 256 q 590 228 607 195 q 619 173 625 154 q 654 68 654 31 q 654 0 638 0 l 454 0 l 443 3 q 437 7 434 21 q 430 35 412 111 l 409 122 q 383 198 371 223 q 359 248 346 258 q 333 267 321 267 q 308 267 296 260 q 285 253 278 238 q 271 223 271 198 q 271 186 273 172 q 275 157 276 146 l 282 107 l 283 100 q 299 30 299 13 q 299 0 292 0 l 83 0 q 73 0 69 14 q 65 27 65 70 l 65 74 l 61 194 l 58 321 l 59 380 q 59 414 60 439 q 61 464 62 488 z m 260 482 l 258 437 q 258 413 290 413 q 301 413 310 417 q 327 424 339 433 q 377 458 394 483 q 412 508 412 533 q 412 545 407 558 q 398 579 382 591 q 367 603 350 603 q 310 603 292 588 q 273 574 268 537 z"},"T":{"x_min":0,"x_max":561,"ha":561,"o":"m 379 106 q 399 37 399 16 q 399 0 386 0 l 191 0 q 176 0 166 25 q 152 60 152 132 l 149 238 l 157 345 q 160 382 163 410 q 166 437 169 452 q 179 499 182 524 q 186 549 184 556 q 182 566 174 571 q 167 576 157 573 q 141 569 125 559 l 86 534 l 45 506 l 25 489 l 23 487 q 18 482 -2 478 q -4 486 -6 494 q -7 499 -7 508 q -7 525 4 568 l 13 604 l 18 622 q 35 685 58 702 q 81 718 174 730 q 198 732 212 733 q 225 734 262 734 l 295 734 l 332 734 q 357 734 380 732 q 403 730 423 727 q 517 711 546 696 q 574 680 574 641 q 574 625 569 597 l 559 543 q 555 519 552 508 q 548 496 543 490 q 538 483 526 483 q 516 483 510 490 q 496 507 487 527 q 482 538 475 546 q 468 555 452 570 q 437 585 419 585 q 401 585 390 572 q 380 558 377 539 l 367 486 q 363 448 360 404 q 358 360 358 319 q 358 302 358 293 l 360 250 q 360 200 367 158 q 370 138 379 106 z"},"P":{"x_min":0,"x_max":617,"ha":617,"o":"m 89 695 q 95 720 114 720 l 489 720 q 543 720 578 691 q 631 650 631 578 q 631 543 616 500 q 600 458 560 417 q 516 372 432 321 l 393 298 l 379 290 q 325 261 308 242 q 291 222 291 189 q 291 173 294 150 l 302 96 l 303 91 q 312 50 312 30 q 312 0 287 0 l 89 0 q 80 0 75 24 l 71 48 l 71 55 q 65 107 62 144 q 60 180 60 230 l 60 375 q 60 435 61 468 q 62 501 66 538 q 70 576 72 594 q 74 612 83 668 z m 278 397 l 309 415 q 371 455 398 492 q 422 525 418 557 q 411 610 359 610 q 338 610 317 600 q 302 593 294 578 q 285 563 282 534 l 277 486 l 276 476 q 275 463 274 452 q 274 440 274 435 q 274 413 278 397 z"},"t":{"x_min":0,"x_max":347,"ha":347,"o":"m 77 577 l 85 576 l 88 598 q 95 655 108 672 q 122 690 174 707 l 222 725 q 251 736 274 739 q 287 739 294 734 q 301 728 299 720 l 289 687 q 281 672 278 651 q 274 630 274 613 q 274 596 277 579 l 301 578 q 328 578 340 572 q 353 565 355 552 l 349 521 q 340 482 338 480 q 337 479 304 476 q 270 473 264 464 q 259 456 259 415 q 259 396 259 373 q 259 350 260 323 l 264 276 q 270 228 276 200 q 283 173 290 156 l 318 88 q 323 80 315 70 q 304 56 270 35 l 252 25 l 211 4 q 179 -12 162 -12 q 137 -12 121 20 q 105 52 90 133 q 85 160 81 202 q 77 244 77 301 l 77 377 q 77 393 77 409 q 77 425 78 441 q 78 451 76 456 q 75 460 68 468 q 62 477 51 477 q 35 477 12 460 l 6 509 l 5 527 q 10 562 22 570 q 33 577 77 577 z"},"M":{"x_min":0,"x_max":847,"ha":847,"o":"m 61 460 q 61 616 76 676 q 87 720 108 720 l 269 720 q 291 720 304 713 q 317 706 338 683 q 345 675 354 660 q 362 646 373 623 l 397 573 l 413 539 l 425 511 l 434 530 l 443 548 l 462 584 q 476 609 484 623 q 492 637 500 648 q 531 696 551 708 q 571 720 619 720 l 739 720 q 764 720 776 673 q 787 626 787 473 l 788 436 q 788 392 787 338 q 786 285 786 268 l 774 141 q 760 47 750 24 q 741 0 717 0 l 539 0 q 524 0 524 17 l 549 99 q 551 107 555 126 q 564 174 571 240 q 575 271 576 283 q 576 295 576 303 q 576 337 576 365 q 576 393 577 416 q 577 426 577 430 q 577 448 574 469 q 552 436 537 405 q 512 355 492 291 q 479 249 476 232 q 467 187 459 174 q 448 156 425 156 q 409 156 379 164 q 366 167 360 179 q 353 191 344 229 l 328 286 l 320 311 l 309 343 l 306 352 l 297 379 q 280 427 251 465 q 245 415 245 367 q 245 313 254 230 l 263 162 q 277 107 284 74 q 291 40 291 25 q 291 0 268 0 l 93 0 q 79 0 73 25 q 64 61 64 155 l 58 294 q 58 341 58 386 q 58 432 61 460 z"},"g":{"x_min":0,"x_max":549,"ha":549,"o":"m 486 567 q 450 557 450 526 l 464 503 q 476 479 482 451 q 488 423 488 397 q 488 316 446 268 q 405 221 326 207 l 301 202 q 259 192 242 184 q 224 175 210 158 q 202 147 202 137 q 202 123 212 116 q 222 110 241 110 l 253 111 l 259 112 l 305 125 l 330 132 q 360 139 378 141 q 397 143 419 143 q 471 143 502 112 q 534 82 534 31 q 534 3 522 -30 l 510 -56 q 487 -97 449 -124 q 411 -150 335 -176 q 325 -179 305 -184 q 285 -190 272 -192 q 224 -201 183 -201 q 120 -201 79 -182 q 46 -167 28 -142 q 11 -117 11 -89 q 11 -71 18 -55 q 24 -39 39 -23 l 62 -5 l 47 8 q 9 47 9 91 q 9 111 18 134 q 25 148 34 160 q 44 171 63 187 l 99 217 l 101 219 q 110 227 110 235 q 110 251 67 313 q 60 325 56 340 q 51 356 51 382 q 51 417 54 438 q 58 459 70 484 q 120 589 234 589 q 251 589 269 586 l 291 582 q 308 579 333 591 q 362 606 385 634 q 418 676 440 676 q 459 676 491 639 l 502 626 l 513 612 q 524 598 524 587 q 524 577 517 574 q 510 571 496 569 z m 222 394 q 225 375 233 361 q 247 340 270 340 q 286 340 297 350 q 317 368 317 415 q 317 441 306 458 q 295 476 275 476 q 257 476 242 460 q 221 437 221 407 q 222 399 222 394 z m 188 -70 q 192 -87 202 -94 q 211 -102 231 -102 q 243 -102 270 -97 q 318 -86 334 -60 q 346 -43 346 -32 q 348 -16 336 -6 q 324 4 308 0 l 277 -7 l 237 -17 l 230 -19 q 186 -31 186 -57 q 186 -60 188 -70 z"},"j":{"x_min":0,"x_max":297,"ha":297,"o":"m 132 630 q 126 629 116 629 q 41 629 30 699 q 29 704 29 715 q 29 749 52 772 q 74 794 112 794 q 158 794 182 778 q 206 762 212 725 q 213 719 213 706 q 213 639 132 630 z m 53 484 q 47 525 47 545 q 47 576 72 576 l 214 576 q 226 576 232 559 q 239 542 239 494 l 241 455 l 242 434 l 244 198 l 247 80 l 247 65 q 247 -78 202 -137 q 161 -190 68 -190 q 8 -190 -14 -178 q -35 -166 -35 -130 q -35 -115 -30 -85 l -29 -82 l -21 -41 q -18 -26 -11 -14 q -8 -9 -2 -9 q 7 -9 19 -21 l 33 -32 q 53 -40 57 -6 l 60 25 l 60 36 l 60 97 l 59 345 l 58 367 l 57 414 z"},"i":{"x_min":0,"x_max":325,"ha":325,"o":"m 51 388 q 51 507 58 542 q 64 576 83 576 l 230 576 q 250 576 250 537 q 250 523 249 515 l 248 508 l 245 470 l 243 443 l 243 424 q 243 391 244 360 q 245 330 246 301 l 249 267 l 252 237 l 256 190 l 263 129 l 265 114 q 275 45 275 21 q 275 0 266 0 l 82 0 q 70 0 64 25 q 55 60 55 143 l 52 228 l 51 245 z m 178 616 q 122 616 97 628 q 72 641 64 676 q 61 688 61 698 q 61 732 86 754 q 110 775 154 775 q 251 775 251 685 q 251 652 215 628 q 203 621 195 618 q 187 616 178 616 z"},"y":{"x_min":0,"x_max":551,"ha":551,"o":"m 27 534 q 32 560 36 568 q 40 576 46 576 l 204 576 q 216 576 221 564 q 226 553 226 520 l 226 492 l 225 466 q 225 453 225 443 q 225 433 230 395 l 233 373 l 240 322 q 246 282 254 264 q 263 246 277 240 q 296 233 306 248 l 319 278 l 330 316 l 332 323 l 338 358 q 347 411 347 446 q 347 454 347 462 q 345 472 345 477 l 338 552 q 338 563 344 570 q 349 576 358 576 l 515 576 q 522 576 526 558 q 530 540 530 517 q 530 488 527 462 q 524 436 522 421 l 504 303 l 503 294 q 491 235 468 173 l 444 118 q 408 43 371 -6 q 334 -54 285 -91 q 250 -118 214 -138 q 179 -158 159 -163 q 82 -184 54 -184 q 30 -184 22 -170 q 15 -156 15 -119 q 15 -108 14 -97 q 14 -86 14 -75 q 14 -36 17 -31 q 21 -24 51 -24 l 65 -24 l 89 -24 q 123 -24 146 -11 q 194 16 194 53 q 194 91 143 154 q 117 186 102 216 q 86 245 61 309 q 50 336 43 364 q 36 391 32 421 q 28 451 27 472 q 26 492 26 512 q 26 530 27 534 z"},".":{"x_min":0,"x_max":276,"ha":276,"o":"m 138 -16 q 96 -16 66 14 q 36 44 36 86 q 36 127 66 157 q 96 187 138 187 q 180 187 210 158 q 239 128 239 85 q 239 42 210 13 q 180 -16 138 -16 z"},"p":{"x_min":0,"x_max":558,"ha":558,"o":"m 48 287 q 48 468 56 522 q 64 576 86 576 l 356 576 q 374 576 392 568 q 411 561 438 540 q 464 518 490 446 q 523 354 523 247 q 523 202 507 160 q 496 131 472 93 q 438 42 402 18 q 365 -5 325 -5 q 312 -5 305 -4 l 288 0 q 284 2 281 2 q 276 2 275 2 q 262 2 262 -19 q 262 -23 264 -43 l 267 -66 l 275 -113 q 282 -140 282 -156 q 282 -180 258 -180 l 99 -180 q 82 -180 71 -137 q 55 -72 55 87 q 52 155 50 208 q 48 261 48 287 z m 237 315 l 238 152 q 238 145 240 140 q 242 134 245 128 q 253 104 276 109 q 291 113 302 128 q 313 144 325 181 q 331 201 334 214 q 336 226 336 249 q 336 373 313 396 q 299 410 282 410 q 265 410 253 396 q 245 385 241 368 q 237 351 237 315 z"},"X":{"x_min":0,"x_max":625,"ha":625,"o":"m 65 637 q 57 671 57 687 q 57 720 91 720 l 272 720 q 274 719 275 718 q 281 713 284 707 l 288 638 l 298 584 q 304 549 310 534 q 317 520 327 515 q 330 513 336 513 q 351 513 357 527 q 359 533 360 546 q 361 558 361 564 q 358 593 358 616 q 358 669 374 697 q 387 720 405 720 l 573 720 q 580 720 583 707 q 586 694 586 657 q 584 643 583 629 q 579 610 576 592 q 573 574 561 541 q 541 491 524 464 q 506 436 477 408 q 462 394 462 379 q 462 364 482 335 l 486 331 l 513 297 q 517 292 526 280 q 535 267 541 257 q 562 221 573 186 l 593 110 q 604 69 604 41 q 604 20 598 10 q 591 0 582 0 l 385 0 q 380 0 377 5 q 373 12 370 28 l 369 34 l 361 92 l 358 107 q 349 158 342 180 q 336 201 326 217 q 316 233 300 233 q 291 233 283 225 q 272 213 270 202 l 250 146 l 248 141 l 233 78 q 226 28 219 14 q 212 0 196 0 l 41 0 q 21 0 21 37 q 21 57 30 93 l 46 159 l 47 162 l 58 191 q 76 234 97 262 q 118 291 165 337 q 189 362 189 380 q 189 385 185 399 l 142 452 q 133 464 126 476 q 118 489 107 509 q 100 522 92 540 q 85 559 81 571 z"},"*":{"x_min":0,"x_max":394,"ha":394,"o":"m 141 653 l 143 664 q 143 721 150 741 q 156 761 182 761 q 193 761 206 758 q 219 754 232 752 q 244 749 252 732 q 260 714 260 672 l 259 654 l 294 666 q 312 673 328 673 q 346 673 356 659 q 365 645 365 611 q 366 595 354 584 l 317 573 q 307 569 299 565 q 296 564 282 554 l 305 521 l 328 489 q 330 476 317 460 q 304 443 279 434 q 275 432 266 432 q 255 432 247 438 q 239 444 233 454 q 227 465 221 475 q 215 485 202 497 l 177 463 q 163 444 152 435 q 141 426 130 426 q 112 426 78 467 q 74 471 74 478 l 99 521 l 115 556 l 77 567 l 37 575 q 27 583 27 605 q 27 609 30 628 q 33 648 40 658 q 46 667 62 667 q 68 667 78 666 q 88 664 94 663 z"},"Y":{"x_min":0,"x_max":614,"ha":614,"o":"m 25 526 q 3 618 3 662 q 3 693 13 706 q 23 720 41 720 l 212 720 q 224 720 226 708 q 229 696 229 646 l 229 623 q 229 590 233 567 q 237 544 245 521 q 259 481 271 462 q 289 433 309 433 q 317 433 323 440 q 329 448 336 460 q 343 472 347 479 l 373 527 l 382 551 q 389 576 392 597 q 396 618 396 637 q 396 662 395 672 q 394 682 392 693 q 390 704 396 712 q 402 720 411 720 l 568 720 q 587 720 596 706 q 606 693 606 661 q 606 641 603 619 q 600 597 592 566 q 584 534 566 502 q 548 470 506 410 l 488 385 l 458 345 l 443 322 q 394 249 377 207 q 360 165 360 110 l 360 90 l 360 49 q 360 0 343 0 l 167 0 q 158 0 152 7 q 146 14 146 29 l 146 60 q 146 96 153 124 q 160 152 174 185 q 188 218 194 232 q 200 247 200 252 q 200 258 197 267 l 129 341 l 105 372 q 73 416 50 461 q 31 499 25 526 z"},"c":{"x_min":0,"x_max":495,"ha":495,"o":"m 409 398 l 388 392 q 382 403 377 411 q 372 419 363 428 q 340 452 312 452 q 271 452 241 404 q 228 384 222 355 q 217 326 217 286 q 217 217 246 179 q 276 141 324 141 q 345 141 365 148 q 402 159 433 200 l 444 217 q 473 207 473 163 q 473 145 470 121 q 461 59 412 21 q 362 -17 281 -17 q 272 -17 263 -17 q 250 -15 244 -15 q 181 -9 136 22 q 92 54 58 116 q 29 169 29 256 q 29 302 40 362 q 50 422 80 468 q 135 551 224 577 q 269 590 309 590 q 399 590 443 532 q 464 503 464 474 q 464 449 450 428 q 435 408 409 398 z"},"!":{"x_min":0,"x_max":347,"ha":347,"o":"m 59 575 q 59 675 66 712 q 73 749 83 749 l 293 749 q 313 749 313 724 q 313 721 311 711 l 286 649 q 279 632 273 609 q 267 586 259 546 q 257 539 254 520 q 252 501 251 491 q 247 442 247 409 q 247 388 248 380 q 254 320 254 294 q 254 271 250 264 q 246 257 233 257 l 132 257 q 127 257 123 261 q 114 270 102 301 q 99 308 96 322 q 90 355 83 392 l 68 475 q 59 534 59 575 z m 181 -16 q 139 -16 109 14 q 79 44 79 86 q 79 128 108 158 q 138 187 181 187 q 223 187 252 158 q 282 128 282 85 q 282 42 252 13 q 223 -16 181 -16 z"},"/":{"x_min":0,"x_max":397,"ha":397,"o":"m 28 7 l 22 29 q 21 36 23 44 q 24 47 37 81 l 75 179 l 83 201 l 112 273 l 130 320 l 265 679 q 280 718 299 738 q 318 757 338 757 q 351 757 360 750 q 370 744 373 736 q 376 728 374 721 q 365 696 353 673 q 346 658 330 620 q 313 582 278 500 l 271 481 l 255 441 l 217 357 l 208 336 l 144 190 l 128 153 l 107 106 l 79 44 l 68 22 q 62 10 51 2 q 46 -1 41 -1 q 33 -1 28 7 z"},"[":{"x_min":0,"x_max":300,"ha":300,"o":"m 267 25 q 267 14 254 7 q 242 0 231 0 l 63 0 q 55 0 40 8 q 25 17 25 27 q 26 55 28 104 q 29 153 29 193 l 29 635 q 29 672 28 706 q 28 741 27 772 q 27 783 33 788 q 43 796 71 796 l 223 796 q 240 796 252 788 q 265 781 265 767 q 265 756 210 720 q 154 685 154 631 l 153 187 q 153 107 210 71 q 267 35 267 25 z"},"6":{"x_min":0,"x_max":583,"ha":583,"o":"m 261 -12 q 150 3 92 82 q 30 167 30 328 q 30 507 110 613 q 189 719 328 733 q 339 735 350 735 q 361 735 367 735 q 380 735 386 735 l 392 734 l 444 725 q 476 719 486 712 q 497 706 497 691 q 497 687 495 671 l 476 621 q 458 570 443 570 q 431 570 390 589 q 382 592 371 592 q 350 592 328 584 q 307 577 286 560 q 271 547 264 535 q 248 507 248 492 q 248 482 255 475 q 259 470 261 470 q 268 471 335 483 q 351 485 360 485 q 378 485 386 484 q 393 482 409 477 q 451 465 480 437 q 510 409 531 359 q 540 338 546 313 q 551 288 551 262 q 551 157 512 95 q 472 33 382 0 q 344 -15 299 -15 q 281 -15 261 -12 z m 240 266 l 240 246 q 244 208 256 188 q 268 168 287 162 q 296 159 305 159 q 326 159 342 175 q 359 191 359 225 q 359 234 358 242 q 358 250 357 257 q 357 280 354 290 q 350 301 340 313 q 326 333 298 333 q 269 333 254 309 q 249 301 246 295 q 240 282 240 266 z"},"r":{"x_min":0,"x_max":435,"ha":435,"o":"m 64 572 q 70 576 76 576 l 226 576 q 231 572 234 568 q 238 560 243 540 q 244 532 250 529 q 256 526 261 528 q 269 533 278 542 q 286 550 304 572 q 310 580 318 584 q 327 589 338 590 q 348 592 356 592 q 392 592 419 565 q 438 548 446 518 q 449 504 449 491 q 449 445 420 420 q 392 394 375 394 q 370 394 366 398 l 361 419 q 353 454 325 454 q 309 454 291 442 q 264 424 256 379 q 249 334 249 201 l 250 190 l 276 15 q 280 0 265 0 l 85 0 q 80 0 77 7 q 74 14 71 41 l 67 79 l 66 85 l 61 148 l 59 180 l 57 210 l 54 275 q 54 337 52 396 q 51 456 51 465 q 51 536 53 550 q 55 565 64 572 z"},"2":{"x_min":0,"x_max":582,"ha":582,"o":"m 490 206 l 501 222 q 519 202 528 175 q 536 148 536 114 q 534 100 532 90 q 529 80 524 70 q 505 27 474 10 q 443 -7 373 -7 q 354 -7 328 -6 q 303 -4 257 0 l 223 4 q 216 5 211 5 q 191 3 171 1 l 154 -1 l 133 -4 l 95 -10 q 79 -12 75 -12 q 61 -12 54 -6 q 41 5 41 39 q 41 57 44 86 q 47 115 66 163 q 79 198 102 231 q 126 264 167 306 q 185 324 205 341 q 229 362 266 389 q 275 396 285 408 q 295 419 308 438 l 321 461 q 337 499 337 525 q 337 569 295 580 q 285 582 280 582 q 259 582 235 568 q 211 553 177 519 l 165 504 l 134 466 q 129 460 118 467 q 106 474 93 498 l 77 527 q 55 569 55 590 q 55 618 102 664 q 173 732 306 732 q 328 732 347 730 q 366 727 396 716 q 464 691 496 648 q 528 605 528 535 q 528 514 525 490 q 516 416 454 350 q 438 331 392 297 l 365 278 l 347 264 l 345 262 l 305 229 q 281 209 272 196 q 263 184 265 175 q 266 170 271 167 q 272 166 274 165 l 312 168 l 355 168 l 398 163 q 413 161 420 162 q 441 164 458 174 q 474 184 490 206 z"},"{":{"x_min":0,"x_max":300,"ha":300,"o":"m 293 25 q 293 14 280 7 q 268 0 257 0 q 242 0 227 0 q 212 0 198 -1 q 106 -1 78 52 q 55 95 55 193 q 55 204 55 209 q 55 219 55 224 q 55 232 55 236 q 55 255 54 274 q 54 293 54 313 q 54 320 54 324 q 54 356 28 380 q 20 387 2 397 q 20 406 28 414 q 54 438 54 472 q 54 512 54 552 q 54 593 55 635 q 55 736 99 772 q 130 797 198 797 q 211 797 224 796 q 236 796 249 796 q 266 796 278 788 q 291 781 291 767 q 291 756 236 720 q 180 685 180 631 l 180 474 q 180 446 162 418 q 156 409 143 394 q 155 382 161 374 q 179 349 179 324 l 179 187 q 179 107 236 71 q 293 35 293 25 z"},"9":{"x_min":0,"x_max":582,"ha":582,"o":"m 51 360 q 41 381 36 406 q 30 430 30 458 q 30 562 70 624 q 110 687 200 720 q 239 735 286 735 q 302 735 320 732 q 431 717 489 638 q 551 553 551 392 q 551 212 472 106 q 393 1 254 -14 q 238 -14 223 -14 q 208 -14 195 -15 l 189 -14 l 138 -5 q 104 1 94 7 q 84 13 84 29 q 84 33 86 49 l 105 99 q 111 115 118 132 q 126 150 139 150 q 146 150 157 146 q 168 142 191 131 q 199 128 211 128 q 232 128 254 136 q 275 143 295 160 q 303 167 308 172 q 311 175 317 185 q 333 213 333 228 q 333 239 326 245 q 321 250 320 250 q 315 250 246 236 q 232 234 224 234 q 203 234 173 242 q 91 266 51 360 z m 223 482 l 224 464 q 224 444 228 431 q 233 418 241 406 q 256 386 282 386 q 311 386 326 410 q 342 434 342 463 q 342 472 341 477 q 336 514 325 532 q 314 551 294 558 q 285 561 276 561 q 255 561 239 545 q 223 529 223 482 z"}," ":{"x_min":0,"x_max":290,"ha":290,"o":""},"I":{"x_min":0,"x_max":351,"ha":351,"o":"m 82 661 q 89 700 97 710 q 105 720 134 720 l 297 720 q 309 720 309 699 q 309 684 298 650 q 287 617 280 581 q 270 527 270 461 q 270 426 270 392 q 269 359 269 328 q 269 303 269 286 q 269 270 273 233 l 287 139 l 289 123 l 293 95 l 301 50 l 306 24 l 307 17 q 310 0 301 0 l 95 0 q 89 0 84 12 q 78 24 72 56 l 69 81 l 63 170 l 62 188 q 62 244 60 322 q 59 399 59 400 l 61 441 l 64 506 q 64 544 67 571 q 72 600 73 611 z"},"H":{"x_min":0,"x_max":715,"ha":715,"o":"m 77 589 q 86 668 96 694 q 106 720 119 720 l 306 720 q 320 720 320 702 q 320 695 315 682 l 294 633 q 293 632 289 619 q 276 583 272 568 q 260 528 260 499 q 260 480 266 470 q 272 459 280 459 q 294 459 306 460 q 318 460 346 463 q 375 466 390 466 q 399 466 404 466 q 447 466 447 501 q 447 510 444 521 l 437 551 l 436 556 q 418 622 401 661 l 388 692 q 385 701 385 707 q 385 720 396 720 l 581 720 q 595 720 606 692 q 621 654 633 565 l 651 431 l 654 374 q 654 339 655 314 q 656 288 657 266 q 657 97 648 48 q 638 0 611 0 l 425 0 q 415 0 415 14 q 415 30 429 69 l 444 125 q 458 178 458 193 q 458 267 457 276 q 453 315 417 327 q 409 330 397 330 q 384 330 366 326 q 349 321 325 311 q 289 296 272 272 q 255 247 255 202 q 255 166 267 107 l 272 90 q 293 30 293 12 q 293 0 282 0 l 94 0 q 85 0 78 18 q 71 36 66 72 q 62 109 60 129 q 59 149 59 202 l 58 293 q 58 356 59 398 q 60 439 63 474 z"},"4":{"x_min":0,"x_max":583,"ha":583,"o":"m 161 634 q 194 683 216 702 q 238 720 258 720 l 424 720 q 437 720 433 707 q 431 701 428 697 q 425 693 414 682 q 402 670 396 664 q 391 657 362 621 q 317 566 292 528 q 268 491 237 430 l 209 370 q 206 362 210 354 q 213 347 220 344 q 228 341 237 341 q 249 341 262 348 q 283 360 288 368 q 293 377 308 425 q 311 435 315 444 q 319 452 332 473 q 356 514 377 535 q 390 548 398 554 q 405 561 414 568 q 443 587 451 592 q 459 596 468 596 q 484 596 484 583 l 482 562 l 481 558 l 476 531 q 470 508 467 477 l 466 471 l 462 421 q 462 383 471 368 q 480 352 508 343 q 536 334 546 332 q 556 329 561 328 q 562 327 562 325 q 566 311 566 273 q 566 219 558 210 q 550 201 499 201 l 476 203 q 470 204 465 201 q 455 193 452 184 q 450 175 450 143 l 450 81 l 451 74 q 451 32 449 16 q 447 0 421 0 l 269 0 q 251 0 251 22 l 250 28 l 251 76 l 251 123 l 252 133 l 255 174 l 256 188 q 256 203 249 203 q 244 203 233 200 l 184 188 l 164 183 q 97 166 80 166 q 73 167 70 167 q 27 173 13 197 q -1 221 -1 286 q -1 328 48 440 q 61 471 76 502 q 92 532 108 557 l 112 564 z"},"~":{"x_min":0,"x_max":321,"ha":321,"o":"m 286 537 q 276 537 272 537 q 263 537 258 539 q 252 541 239 553 q 229 566 223 572 q 211 585 195 585 q 191 585 167 560 q 143 535 121 535 q 97 535 84 546 q 67 566 55 579 q 43 592 32 606 q 20 619 20 626 q 20 632 30 632 q 40 632 44 632 q 53 632 58 630 q 64 628 76 617 q 88 606 100 596 q 111 589 121 589 q 139 609 156 624 q 173 639 193 639 q 216 639 231 625 q 249 603 261 590 q 273 576 284 563 q 296 550 296 543 q 296 537 286 537 z"},"D":{"x_min":0,"x_max":676,"ha":676,"o":"m 68 581 q 76 678 88 699 q 101 720 149 720 l 356 720 q 399 720 455 689 q 485 672 513 642 q 541 611 571 561 l 592 523 q 619 466 631 397 q 643 328 643 270 q 643 178 615 117 q 587 56 536 27 q 509 13 490 6 q 470 0 457 0 l 114 0 q 104 0 96 14 q 89 27 80 66 q 71 106 66 160 q 60 213 60 273 q 60 313 59 373 q 58 433 58 456 l 59 464 z m 265 402 l 267 321 l 276 242 q 280 203 286 183 q 291 163 299 154 q 320 130 347 130 q 380 130 402 167 q 416 189 429 235 q 437 263 437 308 q 437 330 434 359 l 429 391 q 422 437 405 478 q 393 512 381 531 q 366 555 358 565 q 349 575 338 580 q 328 586 316 586 q 290 586 279 562 q 273 550 270 534 q 268 518 268 486 z"},"^":{"x_min":0,"x_max":348,"ha":348,"o":"m 319 563 q 306 563 302 563 q 290 563 284 565 q 277 567 260 579 q 236 596 226 602 q 201 618 177 630 q 153 618 131 604 q 109 590 94 580 q 80 570 71 566 q 62 563 52 563 q 42 563 35 563 q 22 563 22 569 q 22 573 31 583 q 55 605 65 615 q 95 642 130 664 q 164 687 179 689 q 199 689 244 653 q 270 632 289 615 q 303 602 318 589 q 332 576 332 569 q 332 563 319 563 z"},"0":{"x_min":0,"x_max":583,"ha":583,"o":"m 22 352 l 22 389 l 24 425 q 24 577 96 660 q 163 737 278 737 q 309 737 327 736 q 345 735 364 730 q 433 712 473 669 q 513 626 539 541 q 549 508 554 472 q 560 437 560 386 l 560 331 q 560 320 560 314 q 560 305 560 301 q 560 256 555 233 q 534 111 484 54 q 434 -3 342 -15 q 318 -18 295 -18 q 263 -18 236 -12 q 177 0 141 26 q 105 53 73 110 q 48 153 35 209 q 22 265 22 352 z m 218 369 l 219 342 q 219 318 221 301 q 224 288 224 283 q 230 235 244 212 q 258 190 282 184 q 294 182 299 182 q 332 182 352 217 q 372 252 372 326 l 372 423 l 372 427 l 365 497 q 355 581 297 581 q 264 581 247 554 q 230 526 221 451 q 218 424 218 369 z"},"F":{"x_min":0,"x_max":564,"ha":564,"o":"m 102 713 q 110 718 122 719 q 133 720 147 720 l 543 720 q 564 720 564 693 q 564 684 563 679 q 562 672 558 660 q 555 649 544 615 l 541 595 q 539 585 522 585 q 518 585 500 589 l 469 597 l 449 603 l 418 608 q 409 609 393 609 q 342 609 311 586 q 280 563 269 519 l 265 495 q 262 477 270 461 q 279 445 283 446 l 370 474 q 380 476 403 476 q 420 476 431 476 q 440 476 450 476 q 454 476 476 471 q 497 466 497 448 q 497 434 484 409 q 475 390 470 369 q 464 348 460 332 q 455 315 444 315 q 439 315 427 318 q 422 318 398 326 q 390 328 383 328 q 371 328 354 324 q 309 313 290 287 q 271 261 271 205 q 271 173 277 129 l 279 119 q 295 51 295 25 q 295 0 278 0 l 92 0 q 77 0 69 40 q 61 79 61 203 l 58 307 l 59 411 q 59 495 62 542 q 66 589 73 629 l 80 666 q 86 691 90 699 q 93 707 102 713 z"},"`":{"x_min":0,"x_max":276,"ha":276,"o":"m 217 731 q 204 731 200 731 q 188 731 182 733 q 175 735 158 747 q 94 777 59 794 q 24 812 24 823 q 24 828 32 831 q 47 837 92 837 q 125 837 153 814 q 175 793 188 782 q 201 770 216 757 q 230 744 230 737 q 230 731 217 731 z"},"k":{"x_min":0,"x_max":556,"ha":556,"o":"m 65 662 q 73 723 80 736 q 88 749 119 749 l 258 749 q 277 749 277 726 q 277 714 275 704 q 270 685 267 673 q 264 661 262 646 q 259 632 257 617 l 254 586 l 251 560 l 250 548 l 246 502 q 243 470 243 456 q 243 436 257 416 q 272 428 278 440 q 284 451 292 481 l 302 519 q 311 556 316 566 q 321 576 328 576 l 485 576 q 502 576 502 548 q 502 523 486 472 q 481 459 478 451 q 474 443 461 420 l 448 397 l 412 343 l 408 329 q 408 315 418 302 q 429 288 471 248 q 484 237 496 215 q 509 193 521 156 q 537 109 544 80 q 550 52 550 31 q 550 14 546 7 q 542 0 536 0 l 355 0 q 344 0 340 16 l 330 88 l 329 94 l 315 157 q 307 193 297 210 q 287 226 277 228 q 265 232 260 223 q 256 214 256 204 q 256 195 258 177 q 260 159 261 141 l 267 86 l 267 79 q 274 41 274 22 q 274 0 261 0 l 80 0 q 66 0 60 50 q 54 99 54 181 q 54 198 52 248 q 50 299 50 311 l 50 340 l 50 411 q 50 469 52 504 q 53 540 56 588 l 58 607 z"},"u":{"x_min":0,"x_max":583,"ha":583,"o":"m 61 496 q 66 540 75 558 q 84 576 93 576 l 256 576 q 265 576 265 555 q 265 548 264 536 q 263 523 260 507 l 254 472 l 245 410 q 239 360 239 319 q 239 229 244 207 q 249 185 251 180 q 252 176 258 166 q 265 155 274 152 q 282 149 289 149 q 300 149 306 154 q 318 162 325 177 q 332 192 340 236 l 342 253 q 345 279 345 296 q 345 307 344 320 q 344 332 344 347 q 344 353 344 357 l 341 399 l 340 409 l 338 427 l 334 460 l 327 505 l 326 511 q 320 541 320 555 q 320 576 333 576 l 499 576 q 507 576 512 562 q 518 548 523 503 l 529 441 l 531 379 l 532 346 l 533 316 l 533 280 l 533 252 l 532 218 l 530 178 l 529 156 l 526 106 q 526 47 518 24 q 509 0 497 0 l 363 0 q 355 0 347 12 l 346 34 l 341 60 q 329 47 316 37 l 291 22 q 258 3 244 -2 q 230 -7 208 -7 q 140 -7 106 36 q 72 78 57 190 q 54 214 52 230 q 51 247 51 285 l 50 333 l 50 355 l 53 426 z"},"]":{"x_min":0,"x_max":336,"ha":336,"o":"m 273 27 q 273 17 258 8 q 243 0 235 0 l 67 0 q 57 0 44 6 q 31 13 31 25 q 31 34 88 70 q 145 106 145 187 l 144 631 q 144 685 88 720 q 33 756 33 767 q 33 781 45 788 q 57 796 75 796 l 227 796 q 254 796 262 789 q 271 782 271 772 q 271 755 270 710 q 269 666 269 635 l 269 193 q 269 122 270 90 q 271 58 273 27 z"},"U":{"x_min":0,"x_max":697,"ha":697,"o":"m 76 640 q 85 693 92 706 q 100 720 121 720 l 282 720 q 294 720 294 699 q 294 673 276 612 q 275 609 272 594 q 268 578 262 542 q 251 465 251 406 q 251 353 259 308 q 280 194 346 194 q 362 194 380 200 q 408 210 422 232 q 435 253 444 304 q 446 318 446 364 q 447 411 448 447 l 444 512 q 444 559 438 595 q 431 625 429 634 q 415 686 415 705 q 415 720 427 720 l 589 720 q 600 720 609 711 q 618 702 626 678 q 635 654 640 610 q 645 567 645 513 q 645 481 645 452 q 645 422 646 395 q 646 381 646 374 q 646 366 646 358 q 644 346 644 341 q 638 271 630 230 q 621 190 609 160 q 574 78 520 37 q 466 -4 379 -14 q 364 -16 343 -16 q 322 -16 315 -16 q 223 -7 160 47 q 108 91 81 158 q 51 233 51 345 l 50 380 l 52 444 l 54 468 l 59 510 l 64 554 l 66 575 l 70 600 z"},"o":{"x_min":0,"x_max":570,"ha":570,"o":"m 32 244 l 29 276 q 29 423 93 507 q 157 591 268 591 q 401 591 470 507 q 539 423 539 258 q 539 243 538 234 q 536 224 526 182 q 500 92 460 49 q 420 6 351 -11 q 338 -14 324 -16 q 310 -18 294 -18 q 267 -18 237 -12 q 145 5 95 66 q 45 127 32 244 z m 215 306 l 216 281 q 216 240 226 213 q 236 186 253 172 q 270 157 289 157 q 324 157 340 196 q 347 216 351 234 q 355 253 355 291 q 355 305 355 312 q 355 320 355 329 q 353 342 353 348 q 348 392 338 411 q 320 449 286 449 q 265 449 248 432 q 230 416 223 394 q 216 373 216 322 z"},"N":{"x_min":0,"x_max":719,"ha":719,"o":"m 77 651 q 82 691 98 706 q 115 720 154 720 l 249 720 q 262 720 276 712 q 291 705 311 685 q 323 673 344 644 q 364 614 378 593 q 391 572 405 548 q 419 524 434 495 q 444 475 453 456 q 462 438 472 413 q 478 448 478 478 q 478 503 473 546 l 469 578 l 466 602 l 457 657 q 449 692 449 707 q 449 720 456 720 l 621 720 q 629 720 634 706 q 639 691 642 676 q 645 661 648 626 q 652 592 654 579 q 655 566 658 514 q 661 462 661 406 l 661 285 l 660 267 l 656 164 q 656 70 644 35 q 633 0 615 0 l 447 0 q 440 0 435 8 q 430 15 422 39 l 417 53 l 399 114 q 385 165 359 230 l 333 293 q 304 356 288 382 q 272 408 248 429 l 248 383 q 248 284 252 240 q 252 238 262 164 l 271 95 l 272 88 q 277 66 279 48 q 281 30 281 21 q 281 0 271 0 l 101 0 q 81 0 73 22 q 69 37 66 65 q 64 93 64 138 l 59 253 l 59 407 q 59 465 64 526 q 69 587 69 597 l 70 601 z"},"G":{"x_min":0,"x_max":655,"ha":655,"o":"m 357 321 q 359 329 365 332 l 551 412 q 555 414 561 414 q 571 414 576 398 q 580 381 583 357 l 595 303 l 600 284 q 609 236 609 196 q 609 109 564 60 q 518 10 420 -11 q 405 -14 392 -16 q 378 -18 362 -18 q 280 -18 226 4 q 121 48 66 153 q 46 189 37 235 q 28 281 28 339 q 28 381 40 428 q 66 540 116 604 q 165 668 253 705 q 292 722 332 728 q 371 735 411 735 q 441 735 469 730 q 524 721 553 694 q 582 666 582 629 q 582 604 568 578 q 553 551 519 536 l 509 532 q 470 517 456 517 q 438 517 428 552 q 419 588 379 588 q 365 588 350 585 q 334 582 312 561 q 290 540 266 496 q 233 435 233 365 q 233 267 260 210 q 284 159 324 150 q 339 147 351 147 q 404 147 418 205 q 420 212 420 226 q 420 247 410 264 q 400 281 377 301 l 362 312 q 355 315 357 321 z"},"q":{"x_min":0,"x_max":567,"ha":567,"o":"m 171 552 q 224 576 264 576 l 452 576 q 478 576 489 560 q 500 544 500 502 l 508 400 l 516 251 q 516 235 516 227 q 516 214 516 207 q 516 196 516 190 q 516 180 516 176 q 516 168 516 163 q 516 143 516 126 q 515 108 515 92 l 515 78 l 508 -26 l 507 -41 l 500 -121 q 500 -154 492 -167 q 485 -180 469 -180 l 308 -180 q 295 -180 295 -160 q 295 -153 296 -141 q 297 -129 300 -114 l 303 -97 l 310 -63 l 315 -30 q 316 -21 316 -17 q 316 13 291 13 q 279 13 259 7 l 241 3 q 224 0 208 0 q 127 0 80 69 q 29 144 29 286 q 29 382 72 457 q 111 525 171 552 z m 219 280 q 219 269 219 258 q 219 247 222 223 l 225 197 q 235 138 264 122 q 274 117 283 117 q 301 117 312 134 q 318 143 320 152 q 323 162 323 188 q 324 195 324 199 q 324 209 322 252 q 321 296 321 325 l 318 368 q 315 384 304 393 q 293 402 277 400 q 255 397 242 374 q 228 351 221 299 z"},"d":{"x_min":0,"x_max":573,"ha":573,"o":"m 276 582 l 310 581 l 309 602 q 309 630 306 644 q 304 659 298 684 q 292 708 292 725 q 292 749 321 749 l 477 749 q 489 749 494 725 l 500 699 q 512 619 517 558 q 522 497 522 388 l 522 297 q 522 227 520 180 q 517 132 514 98 l 513 86 l 509 51 q 505 21 500 10 q 495 0 485 0 l 237 0 q 147 0 95 57 q 40 117 30 237 l 30 292 q 30 348 43 388 q 56 428 85 470 q 126 530 168 556 q 211 582 276 582 z m 222 289 q 222 271 222 256 q 222 241 226 222 q 231 203 237 192 q 243 180 254 170 q 266 161 279 161 q 304 161 315 184 q 319 192 322 200 q 325 209 325 219 l 330 268 l 330 279 l 333 335 l 333 339 l 333 349 l 330 395 l 327 442 q 327 450 316 457 q 306 464 294 464 q 283 462 273 455 q 263 448 254 432 q 244 415 238 397 q 232 379 229 362 q 226 344 222 304 z"},"1":{"x_min":0,"x_max":584,"ha":584,"o":"m 387 115 q 399 47 399 25 q 399 0 384 0 l 193 0 q 184 0 180 24 q 177 48 177 130 l 177 190 l 177 234 l 177 272 l 179 339 l 183 443 q 183 467 183 489 q 183 511 184 531 q 184 581 176 600 q 168 618 133 644 q 126 648 126 661 q 126 668 128 673 q 130 680 150 690 q 170 700 182 704 l 235 723 l 240 724 l 265 730 q 303 736 327 736 q 364 736 379 724 q 394 712 394 685 q 394 671 388 642 q 382 612 378 578 q 374 543 374 476 q 374 423 374 374 q 374 325 375 280 q 375 225 378 188 q 381 150 387 115 z"},"5":{"x_min":0,"x_max":584,"ha":584,"o":"m 95 681 q 101 704 105 712 q 109 720 113 720 l 471 720 q 506 720 506 674 q 506 651 490 617 q 475 583 469 576 q 463 570 443 570 l 417 571 l 410 571 l 359 576 l 307 580 q 263 580 252 574 q 240 567 227 529 q 219 509 219 492 q 219 466 249 466 l 277 470 q 298 473 318 473 q 419 473 481 409 q 543 345 543 241 q 543 111 434 36 q 384 1 315 -11 q 305 -13 291 -14 q 277 -15 264 -15 q 240 -15 214 -12 q 187 -8 172 -5 q 156 -2 141 4 q 83 25 62 39 q 42 53 42 72 q 42 84 52 106 l 57 118 l 68 141 l 71 149 l 84 176 q 99 205 109 205 q 116 205 139 192 l 164 176 l 167 174 q 177 167 208 160 l 229 156 q 236 155 248 155 q 311 155 328 209 q 334 227 334 244 q 334 281 312 306 q 289 332 258 332 q 239 332 211 325 l 170 309 l 157 302 q 151 299 143 299 q 130 299 98 312 q 65 325 58 340 q 52 355 52 405 l 55 460 l 55 465 l 64 524 l 72 571 l 74 584 l 76 592 l 87 644 z"}}}
